<svg width="28" height="27" viewBox="0 0 28 27" fill="none" xmlns="http://www.w3.org/2000/svg">
<g filter="url(#filter0_di_6_436)">
<rect x="2" y="1" width="24" height="24" rx="12" fill="url(#paint0_angular_6_436)"/>
</g>
<g clip-path="url(#clip0_6_436)">
<g filter="url(#filter1_f_6_436)">
<rect x="2" y="1" width="24" height="24" rx="12" fill="url(#paint1_angular_6_436)"/>
</g>
<g filter="url(#filter2_d_6_436)">
<path d="M10.8949 8C9.76347 8 8.5952 8.57323 8.12052 9.44623C8.0246 9.6224 8 9.73284 8 10.0247V17.3479C8 17.7712 8.22874 18 8.61488 18C8.84116 18 8.97889 17.9264 9.215 17.7712C9.78807 17.3242 10.5013 17.0928 11.2121 17.0928C11.9254 17.0928 12.6042 17.3452 13.1429 17.8186C13.2142 17.8817 13.2978 17.9106 13.3716 17.9106C13.5019 17.9106 13.6077 17.8107 13.6077 17.6582V9.63292C13.6077 9.47778 13.588 9.40941 13.4872 9.24901C13.0125 8.48383 12.009 8 10.8949 8ZM17.1027 8C15.991 8 14.9875 8.48383 14.5128 9.24901C14.412 9.40941 14.3923 9.47778 14.3923 9.63292V17.6582C14.3923 17.8107 14.4981 17.9106 14.6284 17.9106C14.7022 17.9106 14.7883 17.8817 14.8571 17.8186C15.3958 17.3452 16.0746 17.0928 16.7878 17.0928C17.4987 17.0928 18.2119 17.3242 18.785 17.7712C19.0211 17.9264 19.1588 18 19.3827 18C19.7713 18 20 17.7712 20 17.3479V10.0247C20 9.73284 19.9754 9.61978 19.8795 9.44623C19.4048 8.57323 18.2365 8 17.1027 8Z" fill="url(#paint2_radial_6_436)"/>
</g>
</g>
<defs>
<filter id="filter0_di_6_436" x="0.8" y="0.4" width="26.4" height="26.4" filterUnits="userSpaceOnUse" color-interpolation-filters="sRGB">
<feFlood flood-opacity="0" result="BackgroundImageFix"/>
<feColorMatrix in="SourceAlpha" type="matrix" values="0 0 0 0 0 0 0 0 0 0 0 0 0 0 0 0 0 0 127 0" result="hardAlpha"/>
<feOffset dy="0.6"/>
<feGaussianBlur stdDeviation="0.6"/>
<feComposite in2="hardAlpha" operator="out"/>
<feColorMatrix type="matrix" values="0 0 0 0 0 0 0 0 0 0 0 0 0 0 0 0 0 0 0.22 0"/>
<feBlend mode="normal" in2="BackgroundImageFix" result="effect1_dropShadow_6_436"/>
<feBlend mode="normal" in="SourceGraphic" in2="effect1_dropShadow_6_436" result="shape"/>
<feColorMatrix in="SourceAlpha" type="matrix" values="0 0 0 0 0 0 0 0 0 0 0 0 0 0 0 0 0 0 127 0" result="hardAlpha"/>
<feOffset dx="0.6" dy="0.6"/>
<feGaussianBlur stdDeviation="1.5"/>
<feComposite in2="hardAlpha" operator="arithmetic" k2="-1" k3="1"/>
<feColorMatrix type="matrix" values="0 0 0 0 0 0 0 0 0 0 0 0 0 0 0 0 0 0 0.08 0"/>
<feBlend mode="normal" in2="shape" result="effect2_innerShadow_6_436"/>
</filter>
<filter id="filter1_f_6_436" x="-3.7" y="-4.7" width="35.4" height="35.4" filterUnits="userSpaceOnUse" color-interpolation-filters="sRGB">
<feFlood flood-opacity="0" result="BackgroundImageFix"/>
<feBlend mode="normal" in="SourceGraphic" in2="BackgroundImageFix" result="shape"/>
<feGaussianBlur stdDeviation="2.85" result="effect1_foregroundBlur_6_436"/>
</filter>
<filter id="filter2_d_6_436" x="3" y="4.66667" width="25.3333" height="23.3333" filterUnits="userSpaceOnUse" color-interpolation-filters="sRGB">
<feFlood flood-opacity="0" result="BackgroundImageFix"/>
<feColorMatrix in="SourceAlpha" type="matrix" values="0 0 0 0 0 0 0 0 0 0 0 0 0 0 0 0 0 0 127 0" result="hardAlpha"/>
<feOffset dx="1.66667" dy="3.33333"/>
<feGaussianBlur stdDeviation="3.33333"/>
<feComposite in2="hardAlpha" operator="out"/>
<feColorMatrix type="matrix" values="0 0 0 0 0 0 0 0 0 0 0 0 0 0 0 0 0 0 0.16 0"/>
<feBlend mode="normal" in2="BackgroundImageFix" result="effect1_dropShadow_6_436"/>
<feBlend mode="normal" in="SourceGraphic" in2="effect1_dropShadow_6_436" result="shape"/>
</filter>
<radialGradient id="paint0_angular_6_436" cx="0" cy="0" r="1" gradientUnits="userSpaceOnUse" gradientTransform="translate(13.325 13.675) rotate(48.3913) scale(14.344)">
<stop stop-color="#FF382B"/>
<stop offset="0.111111" stop-color="#FC5C18"/>
<stop offset="0.222222" stop-color="#FCBC18"/>
<stop offset="0.333333" stop-color="#61FC18"/>
<stop offset="0.444444" stop-color="#18FCD3"/>
<stop offset="0.555556" stop-color="#1873FC"/>
<stop offset="0.666667" stop-color="#7C18FC"/>
<stop offset="0.777778" stop-color="#B318FC"/>
<stop offset="0.888889" stop-color="#FC18E5"/>
<stop offset="1" stop-color="#FC1833"/>
</radialGradient>
<radialGradient id="paint1_angular_6_436" cx="0" cy="0" r="1" gradientUnits="userSpaceOnUse" gradientTransform="translate(13.325 13.675) rotate(48.3913) scale(14.344)">
<stop stop-color="#FF382B"/>
<stop offset="0.111111" stop-color="#FC5C18"/>
<stop offset="0.222222" stop-color="#FCBC18"/>
<stop offset="0.333333" stop-color="#199042"/>
<stop offset="0.444444" stop-color="#18FCD3"/>
<stop offset="0.555556" stop-color="#1873FC"/>
<stop offset="0.666667" stop-color="#7C18FC"/>
<stop offset="0.777778" stop-color="#B318FC"/>
<stop offset="0.888889" stop-color="#FC18E5"/>
<stop offset="1" stop-color="#FC1833"/>
</radialGradient>
<radialGradient id="paint2_radial_6_436" cx="0" cy="0" r="1" gradientUnits="userSpaceOnUse" gradientTransform="translate(11.4091 11.0952) rotate(69.4321) scale(7.37486 8.59004)">
<stop stop-color="white"/>
<stop offset="1" stop-color="#DDDDDD"/>
</radialGradient>
<clipPath id="clip0_6_436">
<rect x="2" y="1" width="24" height="24" rx="12" fill="white"/>
</clipPath>
</defs>
</svg>
