<svg width="809" height="669" viewBox="0 0 809 669" fill="none" xmlns="http://www.w3.org/2000/svg">
<path d="M614.11 38.0499L421.27 106.64V627.69L659.6 542.91C673.38 538.01 684.65 529.35 692.43 518.34C700.2 507.32 704.57 493.78 704.57 479.09V101.87C704.57 90.3699 702.06 79.7599 697.26 70.5199C692.47 61.2599 685.28 53.1099 675.94 46.5299C666.57 39.9199 656.47 35.8599 646.16 34.4499C635.78 33.0299 624.92 34.2099 614.11 38.0499ZM166.32 466.4C157.52 463.3 152.9 453.64 156 444.84C159.1 436.04 168.76 431.42 177.56 434.52L325.18 487.03C333.98 490.13 338.6 499.79 335.5 508.59C332.4 517.39 322.74 522.01 313.94 518.91L166.32 466.4ZM166.32 260.55C157.52 257.45 152.9 247.79 156 238.99C159.1 230.19 168.76 225.57 177.56 228.67L325.18 281.18C333.98 284.28 338.6 293.94 335.5 302.74C332.4 311.54 322.74 316.16 313.94 313.06L166.32 260.55ZM166.32 363.46C157.52 360.36 152.9 350.7 156 341.9C159.1 333.1 168.76 328.48 177.56 331.58L325.18 384.1C333.98 387.2 338.6 396.86 335.5 405.66C332.4 414.46 322.74 419.08 313.94 415.98L166.32 363.46ZM166.32 157.64C157.52 154.54 152.9 144.88 156 136.08C159.1 127.28 168.76 122.66 177.56 125.76L325.18 178.27C333.98 181.37 338.6 191.03 335.5 199.83C332.4 208.63 322.74 213.25 313.94 210.15L166.32 157.64ZM631.12 434.52C639.92 431.42 649.58 436.04 652.68 444.84C655.78 453.64 651.16 463.3 642.36 466.4L494.74 518.91C485.94 522.01 476.28 517.39 473.18 508.59C470.08 499.79 474.7 490.13 483.5 487.03L631.12 434.52ZM631.12 228.67C639.92 225.57 649.58 230.19 652.68 238.99C655.78 247.79 651.16 257.45 642.36 260.55L494.74 313.06C485.94 316.16 476.28 311.54 473.18 302.74C470.08 293.94 474.7 284.28 483.5 281.18L631.12 228.67ZM631.12 331.58C639.92 328.48 649.58 333.1 652.68 341.9C655.78 350.7 651.16 360.36 642.36 363.46L494.74 415.98C485.94 419.08 476.28 414.46 473.18 405.66C470.08 396.86 474.7 387.2 483.5 384.1L631.12 331.58ZM631.12 125.76C639.92 122.66 649.58 127.28 652.68 136.08C655.78 144.88 651.16 154.54 642.36 157.64L494.74 210.15C485.94 213.25 476.28 208.63 473.18 199.83C470.08 191.03 474.7 181.37 483.5 178.27L631.12 125.76ZM736.24 80.1799H749.08C765.34 80.1799 780.17 86.8699 790.92 97.6099C801.68 108.31 808.35 123.14 808.35 139.45V567C808.35 594.94 796.93 620.33 778.54 638.73C760.08 657.18 734.69 668.6 706.75 668.6H404.67H404.55H404.44H404.33H404.22H404.11H403.99H101.91C73.9801 668.6 48.5801 657.18 30.1801 638.79C11.7301 620.33 0.310059 594.94 0.310059 567V139.45C0.310059 123.14 6.97006 108.3 17.7001 97.5699L18.7501 96.6099C29.4001 86.4499 43.7901 80.1799 59.5801 80.1799H72.4301C74.2801 71.3399 77.2801 62.9299 81.3701 55.0399C88.6801 40.9199 99.4501 28.6399 113.29 18.8699C127.09 9.13991 142.24 3.11991 158.02 0.95991C173.73 -1.19009 189.91 0.519909 205.81 6.16991L404.33 76.7899L602.87 6.16991C618.78 0.519909 634.96 -1.18009 650.66 0.969912C666.43 3.12991 681.59 9.13991 695.38 18.8699C709.23 28.6299 719.99 40.9199 727.3 55.0399C731.39 62.9199 734.39 71.3399 736.24 80.1799ZM70.2201 114.06H59.5801C52.8901 114.06 46.7901 116.66 42.2601 120.86L41.6401 121.51C37.0501 126.1 34.1901 132.47 34.1901 139.45V567C34.1901 585.67 41.8001 602.62 54.0301 614.88C66.2901 627.11 83.2501 634.72 101.91 634.72H306.28L137.83 574.79C117.25 567.47 100.34 554.44 88.5801 537.78C76.8301 521.12 70.2201 500.87 70.2201 479.09V114.06ZM502.39 634.72H706.75C725.42 634.72 742.37 627.11 754.63 614.88C766.86 602.62 774.47 585.67 774.47 567V139.45C774.47 132.47 771.6 126.11 767.01 121.52C762.46 116.9 756.09 114.06 749.08 114.06H738.45V479.09C738.45 500.87 731.84 521.12 720.09 537.78C708.33 554.44 691.42 567.47 670.84 574.79L502.39 634.72ZM387.39 106.64L194.57 38.0499C183.76 34.2099 172.9 33.0199 162.52 34.4399C152.21 35.8499 142.11 39.9199 132.73 46.5299C123.39 53.1199 116.2 61.2699 111.41 70.5199C106.61 79.7699 104.1 90.3799 104.1 101.87V479.09C104.1 493.78 108.47 507.32 116.24 518.34C124.02 529.35 135.29 538.01 149.07 542.91L387.39 627.69V106.64Z" fill="#3B82F6"/>
</svg>
